<svg width="182" height="95" viewBox="0 0 182 95" fill="none" xmlns="http://www.w3.org/2000/svg">
<path d="M178.5 5L176.113 -2.52368e-07L181.887 2.52368e-07L179.5 5L178.5 5ZM4.99999 92.5L-8.29526e-06 94.8867L-7.79053e-06 89.1132L4.99999 91.5L4.99999 92.5ZM179.5 5.4127L179.5 8.36508L178.5 8.36508L178.5 5.4127L179.5 5.4127ZM179.5 12.3016L179.5 15.254L178.5 15.254L178.5 12.3016L179.5 12.3016ZM179.5 19.1905L179.5 22.1429L178.5 22.1429L178.5 19.1905L179.5 19.1905ZM179.5 26.0794L179.5 29.0317L178.5 29.0317L178.5 26.0794L179.5 26.0794ZM179.5 32.9683L179.5 35.9206L178.5 35.9206L178.5 32.9683L179.5 32.9683ZM179.5 39.8571L179.5 42.8095L178.5 42.8095L178.5 39.8571L179.5 39.8571ZM179.5 46.746L179.5 49.6984L178.5 49.6984L178.5 46.746L179.5 46.746ZM179.5 53.6349L179.5 56.5873L178.5 56.5873L178.5 53.6349L179.5 53.6349ZM179.5 60.5238L179.5 62L178.5 62L178.5 60.5238L179.5 60.5238ZM179.5 62C179.5 62.4916 179.488 62.9805 179.465 63.4664L178.466 63.4191C178.489 62.9489 178.5 62.4758 178.5 62L179.5 62ZM179.032 67.352C178.86 68.3217 178.643 69.2756 178.382 70.2114L177.419 69.9427C177.671 69.0379 177.881 68.1154 178.047 67.1777L179.032 67.352ZM177.091 73.9003C176.708 74.8039 176.282 75.6852 175.817 76.5417L174.938 76.0642C175.388 75.2359 175.8 74.3836 176.17 73.5098L177.091 73.9003ZM173.734 79.8496C173.161 80.643 172.55 81.4076 171.904 82.1409L171.154 81.4803C171.778 80.7709 172.369 80.0312 172.924 79.2638L173.734 79.8496ZM169.141 84.9045C168.408 85.5499 167.643 86.1606 166.85 86.7341L166.264 85.9237C167.031 85.3689 167.771 84.7781 168.48 84.1538L169.141 84.9045ZM163.542 88.8168C162.685 89.2822 161.804 89.7077 160.9 90.091L160.51 89.1704C161.384 88.7998 162.236 88.3882 163.064 87.9381L163.542 88.8168ZM157.211 91.3818C156.276 91.6428 155.322 91.8602 154.352 92.0319L154.178 91.0472C155.115 90.8812 156.038 90.6709 156.943 90.4185L157.211 91.3818ZM150.466 92.4654C149.98 92.4884 149.492 92.5 149 92.5L149 91.5C149.476 91.5 149.949 91.4887 150.419 91.4665L150.466 92.4654ZM149 92.5L147.48 92.5L147.48 91.5L149 91.5L149 92.5ZM143.425 92.5L140.384 92.5L140.384 91.5L143.425 91.5L143.425 92.5ZM136.33 92.5L133.289 92.5L133.289 91.5L136.33 91.5L136.33 92.5ZM129.235 92.5L126.194 92.5L126.194 91.5L129.235 91.5L129.235 92.5ZM122.139 92.5L119.099 92.5L119.099 91.5L122.139 91.5L122.139 92.5ZM115.044 92.5L112.003 92.5L112.003 91.5L115.044 91.5L115.044 92.5ZM107.949 92.5L104.908 92.5L104.908 91.5L107.949 91.5L107.949 92.5ZM100.854 92.5L97.8129 92.5L97.8129 91.5L100.854 91.5L100.854 92.5ZM93.7585 92.5L90.7177 92.5L90.7177 91.5L93.7585 91.5L93.7585 92.5ZM86.6633 92.5L83.6224 92.5L83.6224 91.5L86.6633 91.5L86.6633 92.5ZM79.568 92.5L76.5272 92.5L76.5272 91.5L79.568 91.5L79.568 92.5ZM72.4728 92.5L69.432 92.5L69.432 91.5L72.4728 91.5L72.4728 92.5ZM65.3775 92.5L62.3367 92.5L62.3367 91.5L65.3775 91.5L65.3775 92.5ZM58.2823 92.5L55.2415 92.5L55.2415 91.5L58.2823 91.5L58.2823 92.5ZM51.1871 92.5L48.1463 92.5L48.1463 91.5L51.1871 91.5L51.1871 92.5ZM44.0918 92.5L41.051 92.5L41.051 91.5L44.0918 91.5L44.0918 92.5ZM36.9966 92.5L33.9558 92.5L33.9558 91.5L36.9966 91.5L36.9966 92.5ZM29.9014 92.5L26.8605 92.5L26.8605 91.5L29.9014 91.5L29.9014 92.5ZM22.8061 92.5L19.7653 92.5L19.7653 91.5L22.8061 91.5L22.8061 92.5ZM15.7109 92.5L12.6701 92.5L12.6701 91.5L15.7109 91.5L15.7109 92.5ZM8.61564 92.5L5.57482 92.5L5.57482 91.5L8.61564 91.5L8.61564 92.5Z" fill="#38B6FF" fill-opacity="0.85"/>
</svg>
