<?xml version="1.0" encoding="UTF-8"?>
<!DOCTYPE svg PUBLIC "-//W3C//DTD SVG 1.1//EN" "http://www.w3.org/Graphics/SVG/1.1/DTD/svg11.dtd">
<svg xmlns="http://www.w3.org/2000/svg" version="1.1" width="298px" height="37px" style="shape-rendering:geometricPrecision; text-rendering:geometricPrecision; image-rendering:optimizeQuality; fill-rule:evenodd; clip-rule:evenodd" xmlns:xlink="http://www.w3.org/1999/xlink">
<g><path style="opacity:0.893" fill="#37b6ff" d="M 297.5,7.5 C 297.5,9.16667 297.5,10.8333 297.5,12.5C 198.167,12.5 98.8333,12.5 -0.5,12.5C -0.5,10.5 -0.5,8.5 -0.5,6.5C 98.8348,3.13955 198.168,3.47288 297.5,7.5 Z"/></g>
<g><path style="opacity:0.947" fill="#38b5ff" d="M 297.5,27.5 C 297.5,28.8333 297.5,30.1667 297.5,31.5C 198.171,30.5611 98.8379,30.2277 -0.5,30.5C -0.5,28.8333 -0.5,27.1667 -0.5,25.5C 28.1498,24.3113 56.8165,23.6446 85.5,23.5C 156.179,24.2736 226.846,25.6069 297.5,27.5 Z"/></g>
</svg>
