<svg width="20" height="20" viewBox="0 0 20 20" fill="none" xmlns="http://www.w3.org/2000/svg">
<path d="M12.5267 11.7877L15.1767 7.86822C15.439 7.48215 14.9416 7.06251 14.5617 7.33947L11.7036 9.35375C11.6097 9.41913 11.4954 9.45447 11.378 9.45447C11.2606 9.45447 11.1463 9.41913 11.0524 9.35375L8.93599 7.87661C8.30287 7.44019 7.39842 7.59965 6.97333 8.21233L4.32328 12.1318C4.06099 12.5179 4.55844 12.9375 4.93831 12.6605L7.79638 10.6462C7.89031 10.5809 8.00457 10.5455 8.12198 10.5455C8.2394 10.5455 8.35365 10.5809 8.44759 10.6462L10.564 12.0982C11.1971 12.5598 12.1016 12.4004 12.5267 11.7877Z" fill="white"/>
<path fill-rule="evenodd" clip-rule="evenodd" d="M9.75 0C4.36522 0 0 4.36522 0 9.75C0 12.5151 1.15194 15.0121 3 16.7856V19.25C3 19.4911 3.11589 19.7175 3.31147 19.8584C3.50704 19.9994 3.75846 20.0378 3.98717 19.9615L6.76683 19.035C7.70792 19.3371 8.71062 19.5 9.75 19.5C15.1348 19.5 19.5 15.1348 19.5 9.75C19.5 4.36522 15.1348 0 9.75 0ZM1.5 9.75C1.5 5.19365 5.19365 1.5 9.75 1.5C14.3063 1.5 18 5.19365 18 9.75C18 14.3063 14.3063 18 9.75 18C8.79047 18 7.87073 17.8365 7.01612 17.5365C6.85916 17.4813 6.68832 17.48 6.5305 17.5326L4.5 18.2094V16.4583C4.5 16.245 4.40915 16.0417 4.25019 15.8995C2.56118 14.3878 1.5 12.1933 1.5 9.75Z" fill="white"/>
</svg>
