<svg width="182" height="95" viewBox="0 0 182 95" fill="none" xmlns="http://www.w3.org/2000/svg">
<path d="M3.5 5L5.88675 0H0.113249L2.5 5H3.5ZM177 92.5L182 94.8867V89.1133L177 91.5V92.5ZM2.5 5.4127V8.36508H3.5V5.4127H2.5ZM2.5 12.3016V15.254H3.5V12.3016H2.5ZM2.5 19.1905V22.1429H3.5V19.1905H2.5ZM2.5 26.0794V29.0317H3.5V26.0794H2.5ZM2.5 32.9683V35.9206H3.5V32.9683H2.5ZM2.5 39.8571V42.8095H3.5V39.8571H2.5ZM2.5 46.746V49.6984H3.5V46.746H2.5ZM2.5 53.6349V56.5873H3.5V53.6349H2.5ZM2.5 60.5238V62H3.5V60.5238H2.5ZM2.5 62C2.5 62.4916 2.51163 62.9805 2.53464 63.4664L3.53352 63.4191C3.51126 62.9489 3.5 62.4758 3.5 62H2.5ZM2.9681 67.352C3.13976 68.3217 3.35724 69.2756 3.61823 70.2114L4.58147 69.9427C4.3291 69.0379 4.1188 68.1154 3.95279 67.1777L2.9681 67.352ZM4.90898 73.9003C5.29225 74.8039 5.71783 75.6852 6.18322 76.5417L7.06188 76.0642C6.61178 75.2359 6.20022 74.3836 5.82959 73.5098L4.90898 73.9003ZM8.26593 79.8496C8.83943 80.643 9.45014 81.4076 10.0955 82.1409L10.8462 81.4803C10.2219 80.7709 9.6311 80.0312 9.07635 79.2638L8.26593 79.8496ZM12.8591 84.9045C13.5924 85.5499 14.357 86.1606 15.1504 86.7341L15.7362 85.9237C14.9688 85.3689 14.2291 84.7781 13.5197 84.1538L12.8591 84.9045ZM18.4583 88.8168C19.3148 89.2822 20.1961 89.7077 21.0997 90.091L21.4902 89.1704C20.6164 88.7998 19.7641 88.3882 18.9358 87.9381L18.4583 88.8168ZM24.7886 91.3818C25.7244 91.6428 26.6783 91.8602 27.648 92.0319L27.8223 91.0472C26.8846 90.8812 25.9621 90.6709 25.0573 90.4185L24.7886 91.3818ZM31.5336 92.4654C32.0195 92.4884 32.5084 92.5 33 92.5V91.5C32.5242 91.5 32.0511 91.4887 31.5809 91.4665L31.5336 92.4654ZM33 92.5H34.5204V91.5H33V92.5ZM38.5748 92.5H41.6156V91.5H38.5748V92.5ZM45.6701 92.5H48.7109V91.5H45.6701V92.5ZM52.7653 92.5H55.8061V91.5H52.7653V92.5ZM59.8605 92.5H62.9014V91.5H59.8605V92.5ZM66.9558 92.5H69.9966V91.5H66.9558V92.5ZM74.051 92.5H77.0918V91.5H74.051V92.5ZM81.1463 92.5H84.1871V91.5H81.1463V92.5ZM88.2415 92.5H91.2823V91.5H88.2415V92.5ZM95.3367 92.5H98.3775V91.5H95.3367V92.5ZM102.432 92.5H105.473V91.5H102.432V92.5ZM109.527 92.5H112.568V91.5H109.527V92.5ZM116.622 92.5H119.663V91.5H116.622V92.5ZM123.718 92.5H126.758V91.5H123.718V92.5ZM130.813 92.5H133.854V91.5H130.813V92.5ZM137.908 92.5H140.949V91.5H137.908V92.5ZM145.003 92.5H148.044V91.5H145.003V92.5ZM152.099 92.5H155.139V91.5H152.099V92.5ZM159.194 92.5H162.235V91.5H159.194V92.5ZM166.289 92.5H169.33V91.5H166.289V92.5ZM173.384 92.5H176.425V91.5H173.384V92.5Z" fill="#38B6FF" fill-opacity="0.85"/>
</svg>
