<svg width="17" height="15" viewBox="0 0 17 15" fill="none" xmlns="http://www.w3.org/2000/svg">
<path d="M0 7.7257C0 7.346 0.282154 7.03221 0.648229 6.98255L0.75 6.9757L15.75 6.9757C16.1642 6.9757 16.5 7.31149 16.5 7.7257C16.5 8.1054 16.2178 8.41919 15.8518 8.46885L15.75 8.4757L0.75 8.4757C0.335786 8.4757 0 8.13991 0 7.7257Z" fill="#38B6FF"/>
<path d="M9.17101 2.23277C8.87749 1.94051 8.87646 1.46564 9.16872 1.17211C9.43442 0.905273 9.85103 0.880171 10.1451 1.09739L10.2294 1.16983L16.2794 7.19383C16.547 7.46032 16.5714 7.87843 16.3524 8.1725L16.2794 8.25673L10.2294 14.2817C9.93593 14.574 9.46105 14.573 9.16877 14.2795C8.90305 14.0127 8.87971 13.596 9.09817 13.3028L9.17096 13.2189L14.687 7.725L9.17101 2.23277Z" fill="#38B6FF"/>
</svg>
