<svg width="20" height="20" viewBox="0 0 20 20" fill="none" xmlns="http://www.w3.org/2000/svg">
<path d="M6.80184 5.16985C6.9848 5.17475 7.18764 5.18465 7.38063 5.61303C7.5086 5.89821 7.72418 6.42321 7.8998 6.85087C8.03645 7.18366 8.1489 7.45751 8.17704 7.51356C8.24134 7.64156 8.28092 7.78926 8.19683 7.96156C8.18691 7.98188 8.17755 8.00132 8.16853 8.02003C8.10107 8.16003 8.05306 8.25966 7.93963 8.38994C7.89298 8.44348 7.84439 8.50219 7.79598 8.56069C7.71084 8.66358 7.62625 8.7658 7.55374 8.83802C7.42514 8.96593 7.29153 9.10391 7.43992 9.35991C7.5884 9.6159 8.10781 10.4579 8.87457 11.1373C9.6989 11.8712 10.4157 12.1805 10.7781 12.3368C10.8484 12.3672 10.9054 12.3918 10.9472 12.4126C11.2045 12.5406 11.3578 12.5209 11.5062 12.3486C11.6547 12.1762 12.1493 11.6001 12.3225 11.3441C12.4907 11.0881 12.6638 11.1275 12.9013 11.2161C13.1387 11.3047 14.4051 11.9251 14.6623 12.0531C14.7131 12.0784 14.7607 12.1012 14.8048 12.1224C14.9837 12.2082 15.1054 12.2665 15.157 12.3535C15.2213 12.4618 15.2213 12.9739 15.0086 13.5746C14.791 14.1752 13.7422 14.7513 13.2673 14.7956C13.2223 14.7999 13.1776 14.8053 13.1315 14.8108C12.6963 14.8635 12.1438 14.9303 10.1755 14.1555C7.75014 13.2018 6.14912 10.8354 5.82543 10.357C5.79987 10.3192 5.78228 10.2932 5.77287 10.2806L5.76739 10.2733C5.62012 10.0762 4.71918 8.87067 4.71918 7.62685C4.71918 6.43682 5.3054 5.81726 5.57279 5.53467C5.58973 5.51676 5.6054 5.50021 5.61955 5.48494C5.85696 5.22895 6.13404 5.16495 6.30715 5.16495C6.48034 5.16495 6.65345 5.16495 6.80184 5.16985Z" fill="white"/>
<path fill-rule="evenodd" clip-rule="evenodd" d="M0.100074 19.3314C0.018257 19.6284 0.288746 19.9025 0.586794 19.8247L5.19413 18.6213C6.64849 19.409 8.28589 19.8275 9.95303 19.8275H9.95796C15.4439 19.8275 19.9159 15.3815 19.9159 9.91626C19.9159 7.26735 18.8819 4.77594 17.0022 2.90491C15.1224 1.03397 12.6242 0 9.95787 0C4.47197 0 6.3431e-07 4.44605 6.3431e-07 9.91136C-0.000622781 11.65 0.458295 13.3582 1.33068 14.8645L0.100074 19.3314ZM2.77681 15.2629C2.88363 14.8752 2.83027 14.4608 2.6287 14.1127C1.88855 12.8348 1.49947 11.3855 1.5 9.91136C1.5 5.28158 5.29327 1.5 9.95787 1.5C12.2278 1.5 14.3455 2.37698 15.944 3.96805C17.5407 5.55737 18.4159 7.66611 18.4159 9.91626C18.4159 14.5459 14.6227 18.3275 9.95796 18.3275H9.95303C8.53651 18.3275 7.14452 17.9718 5.90856 17.3023C5.57403 17.1211 5.18315 17.0738 4.81506 17.17L2.05265 17.8915L2.77681 15.2629Z" fill="white"/>
</svg>
