<svg width="21" height="16" viewBox="0 0 21 16" fill="none" xmlns="http://www.w3.org/2000/svg">
<path fill-rule="evenodd" clip-rule="evenodd" d="M8.75025 3.91209C8.51855 3.77307 8.22999 3.76943 7.99486 3.90256C7.75972 4.03569 7.61438 4.285 7.61438 4.55521V10.5552C7.61438 10.8254 7.75972 11.0747 7.99486 11.2079C8.22999 11.341 8.51855 11.3373 8.75025 11.1983L13.7503 8.19833C13.9762 8.06278 14.1144 7.81865 14.1144 7.55521C14.1144 7.29176 13.9762 7.04763 13.7503 6.91209L8.75025 3.91209ZM11.9066 7.55521L9.11438 9.23056V5.87985L11.9066 7.55521Z" fill="white"/>
<path fill-rule="evenodd" clip-rule="evenodd" d="M15.3951 0.196487C12.0464 -0.0654956 8.68242 -0.0654958 5.33376 0.196487L3.09306 0.371789C1.7305 0.47839 0.61581 1.49959 0.390573 2.84764C-0.130191 5.96441 -0.130191 9.146 0.390573 12.2628C0.61581 13.6108 1.7305 14.632 3.09306 14.7386L5.33376 14.9139C8.68241 15.1759 12.0464 15.1759 15.3951 14.9139L17.6358 14.7386C18.9983 14.632 20.113 13.6108 20.3382 12.2628C20.859 9.146 20.859 5.96441 20.3382 2.84764C20.113 1.49959 18.9983 0.47839 17.6358 0.371789L15.3951 0.196487ZM5.45076 1.69192C8.72153 1.43603 12.0073 1.43603 15.2781 1.69192L17.5188 1.86722C18.1944 1.92008 18.7471 2.42643 18.8588 3.09484C19.3522 6.04795 19.3522 9.06246 18.8588 12.0156C18.7471 12.684 18.1944 13.1903 17.5188 13.2432L15.2781 13.4185C12.0073 13.6744 8.72153 13.6744 5.45076 13.4185L3.21006 13.2432C2.53445 13.1903 1.98174 12.684 1.87006 12.0156C1.37665 9.06246 1.37665 6.04795 1.87006 3.09484C1.98174 2.42643 2.53445 1.92008 3.21006 1.86722L5.45076 1.69192Z" fill="white"/>
</svg>
